<?xml version="1.0" standalone="no"?>
<!DOCTYPE svg PUBLIC "-//W3C//DTD SVG 20010904//EN"
 "http://www.w3.org/TR/2001/REC-SVG-20010904/DTD/svg10.dtd">
<svg version="1.0" xmlns="http://www.w3.org/2000/svg"
 width="1000.000000pt" height="1000.000000pt" viewBox="0 0 1000.000000 1000.000000"
 preserveAspectRatio="xMidYMid meet">
<metadata>
Created by potrace 1.11, written by Peter Selinger 2001-2013
</metadata>
<g transform="translate(0.000000,1000.000000) scale(0.100000,-0.100000)"
fill="#000000" stroke="none">
<path d="M575 9976 c-158 -43 -274 -113 -373 -222 -74 -83 -74 -84 -102 -139
-14 -28 -27 -52 -30 -55 -6 -6 -38 -97 -45 -127 -3 -13 -8 -33 -12 -45 -13
-39 -15 -8706 -2 -8758 6 -25 13 -56 16 -70 2 -14 16 -52 29 -85 14 -33 28
-68 31 -77 3 -10 9 -18 14 -18 5 0 9 -5 9 -11 0 -20 104 -144 160 -191 82 -68
191 -123 300 -153 l95 -25 4335 0 4335 0 91 24 c102 28 190 66 225 99 13 12
26 21 29 20 3 -1 27 15 54 37 27 22 46 40 42 40 -3 0 12 16 34 36 22 20 40 43
40 50 0 8 4 14 8 14 18 0 102 178 117 249 3 11 8 31 12 43 5 13 9 1976 11
4363 2 3300 0 4353 -9 4395 -44 206 -136 358 -288 473 -70 54 -117 81 -181
102 -3 1 -17 7 -33 13 -105 44 110 42 -4495 41 l-4337 0 -80 -23z"/>
</g>
</svg>
